<?xml version="1.0" encoding="utf-8"?>
<!-- Generator: Adobe Illustrator 17.1.0, SVG Export Plug-In . SVG Version: 6.00 Build 0)  -->
<!DOCTYPE svg PUBLIC "-//W3C//DTD SVG 1.1//EN" "http://www.w3.org/Graphics/SVG/1.1/DTD/svg11.dtd">
<svg version="1.1" id="Layer_1" xmlns="http://www.w3.org/2000/svg" xmlns:xlink="http://www.w3.org/1999/xlink" x="0px" y="0px"
	 viewBox="0 0 48 48" enable-background="new 0 0 48 48" xml:space="preserve">
<path d="M24.5,41C15.4,41,8,33.6,8,24.5C8,15.4,15.4,8,24.5,8C33.6,8,41,15.4,41,24.5C41,33.6,33.6,41,24.5,41z M24.5,8.9
	C16,8.9,8.9,16,8.9,24.5c0,8.5,7.1,15.6,15.6,15.6c8.5,0,15.6-7.1,15.6-15.6C40.1,16,33,8.9,24.5,8.9z"/>
<rect x="15" y="24" width="19" height="1"/>
<rect x="24" y="15" width="1" height="19"/>
</svg>
