<?xml version="1.0" encoding="utf-8"?>
<!-- Generator: Adobe Illustrator 17.1.0, SVG Export Plug-In . SVG Version: 6.00 Build 0)  -->
<!DOCTYPE svg PUBLIC "-//W3C//DTD SVG 1.1//EN" "http://www.w3.org/Graphics/SVG/1.1/DTD/svg11.dtd">
<svg version="1.1" id="Layer_1" xmlns="http://www.w3.org/2000/svg" xmlns:xlink="http://www.w3.org/1999/xlink" x="0px" y="0px"
	 viewBox="0 0 48 48" enable-background="new 0 0 48 48" xml:space="preserve">
<path d="M34.4,40.6c-0.1,0-0.2,0-0.3-0.1l-10.5-7.7L13,40.5c-0.2,0.1-0.4,0.1-0.6,0c-0.2-0.1-0.2-0.4-0.2-0.6l4-12.4L5.7,19.8
	c-0.2-0.1-0.2-0.4-0.2-0.6C5.6,19.1,5.8,19,6,19h13l4-12.5c0.1-0.4,0.8-0.4,1,0L28,19h13c0.2,0,0.4,0.1,0.5,0.3
	c0.1,0.2,0,0.4-0.2,0.6l-10.5,7.7l4,12.4c0.1,0.2,0,0.4-0.2,0.6C34.6,40.5,34.5,40.6,34.4,40.6z M23.5,31.7c0.1,0,0.2,0,0.3,0.1
	l9.6,7l-3.7-11.3c-0.1-0.2,0-0.4,0.2-0.6l9.6-7H27.7c-0.2,0-0.4-0.1-0.5-0.3L23.5,8.3l-3.7,11.3c-0.1,0.2-0.3,0.3-0.5,0.3H7.5l9.6,7
	c0.2,0.1,0.2,0.4,0.2,0.6l-3.7,11.3l9.6-7C23.3,31.7,23.4,31.7,23.5,31.7z"/>
</svg>
